HIERARCHY
ROOT Hips
{
	OFFSET 0.00000 0.00000 0.00000
	CHANNELS 6 Xposition Yposition Zposition Zrotation Yrotation Xrotation 
	JOINT LHipJoint
	{
		OFFSET 0 0 0
		CHANNELS 3 Zrotation Yrotation Xrotation
		JOINT LeftUpLeg
		{
			OFFSET 1.53794 -1.55850 0.93568
			CHANNELS 3 Zrotation Yrotation Xrotation
			JOINT LeftLeg
			{
				OFFSET 2.28545 -6.27922 0.00000
				CHANNELS 3 Zrotation Yrotation Xrotation
				JOINT LeftFoot
				{
					OFFSET 2.37329 -6.52057 0.00000
					CHANNELS 3 Zrotation Yrotation Xrotation
					JOINT LeftToeBase
					{
						OFFSET 0.14846 -0.40788 2.09160
						CHANNELS 3 Zrotation Yrotation Xrotation
						End Site
						{
							OFFSET 0.00000 -0.00000 1.07536
						}
					}
				}
			}
		}
	}
	JOINT RHipJoint
	{
		OFFSET 0 0 0
		CHANNELS 3 Zrotation Yrotation Xrotation
		JOINT RightUpLeg
		{
			OFFSET -1.78290 -1.55850 0.93568
			CHANNELS 3 Zrotation Yrotation Xrotation
			JOINT RightLeg
			{
				OFFSET -2.24144 -6.15831 0.00000
				CHANNELS 3 Zrotation Yrotation Xrotation
				JOINT RightFoot
				{
					OFFSET -2.35091 -6.45907 0.00000
					CHANNELS 3 Zrotation Yrotation Xrotation
					JOINT RightToeBase
					{
						OFFSET -0.14428 -0.39641 2.07944
						CHANNELS 3 Zrotation Yrotation Xrotation
						End Site
						{
							OFFSET -0.00000 -0.00000 1.06864
						}
					}
				}
			}
		}
	}
	JOINT LowerBack
	{
		OFFSET 0 0 0
		CHANNELS 3 Zrotation Yrotation Xrotation
		JOINT Spine
		{
			OFFSET -0.08841 2.11430 -0.15818
			CHANNELS 3 Zrotation Yrotation Xrotation
			JOINT Spine1
			{
				OFFSET -0.00033 2.12605 -0.08097
				CHANNELS 3 Zrotation Yrotation Xrotation
				JOINT Neck
				{
					OFFSET 0 0 0
					CHANNELS 3 Zrotation Yrotation Xrotation
					JOINT Neck1
					{
						OFFSET 0.04431 1.59447 0.43193
						CHANNELS 3 Zrotation Yrotation Xrotation
						JOINT Head
						{
							OFFSET 0.00455 1.62017 -0.58852
							CHANNELS 3 Zrotation Yrotation Xrotation
							End Site
							{
								OFFSET -0.00920 1.72955 -0.25850
							}
						}
					}
				}
				JOINT LeftShoulder
				{
					OFFSET 0 0 0
					CHANNELS 3 Zrotation Yrotation Xrotation
					JOINT LeftArm
					{
						OFFSET 2.86490 1.49927 -0.33774
						CHANNELS 3 Zrotation Yrotation Xrotation
						JOINT LeftForeArm
						{
							OFFSET 4.87408 -0.00000 0.00000
							CHANNELS 3 Zrotation Yrotation Xrotation
							JOINT LeftHand
							{
								OFFSET 2.76729 -0.00000 0.00000
								CHANNELS 3 Zrotation Yrotation Xrotation
								JOINT LeftFingerBase
								{
									OFFSET 0 0 0
									CHANNELS 3 Zrotation Yrotation Xrotation
									JOINT LeftHandIndex1
									{
										OFFSET 0.98922 -0.00000 0.00000
										CHANNELS 3 Zrotation Yrotation Xrotation
										End Site
										{
											OFFSET 0.79753 -0.00000 0.00000
										}
									}
								}
								JOINT LThumb
								{
									OFFSET 0 0 0
									CHANNELS 3 Zrotation Yrotation Xrotation
									End Site
									{
										OFFSET 0.80972 -0.00000 0.80972
									}
								}
							}
						}
					}
				}
				JOINT RightShoulder
				{
					OFFSET 0 0 0
					CHANNELS 3 Zrotation Yrotation Xrotation
					JOINT RightArm
					{
						OFFSET -2.94414 1.45463 -0.25291
						CHANNELS 3 Zrotation Yrotation Xrotation
						JOINT RightForeArm
						{
							OFFSET -4.71404 -0.00000 0.00000
							CHANNELS 3 Zrotation Yrotation Xrotation
							JOINT RightHand
							{
								OFFSET -2.83468 -0.00000 0.00000
								CHANNELS 3 Zrotation Yrotation Xrotation
								JOINT RightFingerBase
								{
									OFFSET 0 0 0
									CHANNELS 3 Zrotation Yrotation Xrotation
									JOINT RightHandIndex1
									{
										OFFSET -0.86820 -0.00000 0.00000
										CHANNELS 3 Zrotation Yrotation Xrotation
										End Site
										{
											OFFSET -0.69996 -0.00000 0.00000
										}
									}
								}
								JOINT RThumb
								{
									OFFSET 0 0 0
									CHANNELS 3 Zrotation Yrotation Xrotation
									End Site
									{
										OFFSET -0.71065 -0.00000 0.71065
									}
								}
							}
						}
					}
				}
			}
		}
	}
}
MOTION
Frames: 14
Frame Time: .0083333
0.9315 15.7131 1.2874 175.8220 -2.2494 -169.9700 0.0000 0.0000 0.0000 -24.8079 -14.0122 -23.4992 4.0457 12.2210 36.5184 -0.9681 17.1260 -7.3562 0.2206 -3.0234 -8.3438 0.0000 0.0000 0.0000 16.5083 -2.2123 -9.7610 -15.8536 -19.5827 77.7953 0.8415 -20.1538 5.7306 -1.3389 7.3264 -20.6859 -6.0182 1.9168 -0.5690 -3.0441 2.4768 0.6588 0.2659 1.1342 0.8716 -4.2438 -3.3308 -37.2668 6.7118 -7.8222 38.2826 1.8827 -2.9709 23.7616 -0.0000 -0.0000 0.0000 -68.7164 15.5840 62.5581 122.8119 -55.5129 -87.9878 -0.0000 -0.0000 17.5533 14.0927 4.0280 1.0103 -7.1250 0.0000 -0.0000 -10.2764 33.9942 2.8127 -0.0000 -0.0000 0.0000 84.1544 -21.9175 46.1969 -100.3415 59.5920 -68.9437 0.0000 0.0000 6.1483 -13.5713 -2.8427 0.6859 7.1250 -0.0000 -0.0000 10.5368 -32.7754 3.2020
0.9302 15.6380 0.9271 174.9710 -1.7733 -170.3490 0.0000 0.0000 0.0000 -26.1191 -13.2777 -22.0036 4.2140 12.4399 37.3065 -1.0732 18.0363 -8.4700 0.2807 -3.4078 -9.4162 0.0000 0.0000 0.0000 14.9427 -1.5869 -12.1555 -17.0500 -19.7901 81.3458 0.9796 -20.2381 3.9479 -1.2945 7.2088 -20.3356 -7.1062 1.7508 0.1105 -3.1988 2.1740 0.9016 0.6886 0.9578 0.7198 -4.0339 -3.1363 -37.5600 6.8029 -7.5829 38.0211 1.9668 -2.8147 23.6003 0.0000 -0.0000 0.0000 -69.7075 13.9624 62.4393 121.9927 -55.7551 -87.3116 -0.0000 -0.0000 17.7068 14.0804 4.4161 1.1064 -7.1250 0.0000 -0.0000 -10.3409 34.3871 2.7308 0.0000 -0.0000 0.0000 84.6116 -23.1659 44.7026 -99.1293 59.6827 -67.8978 0.0000 0.0000 6.1668 -14.0384 -2.9636 0.7406 7.1250 -0.0000 -0.0000 10.1784 -32.9130 3.0557
0.9329 15.5742 0.5714 174.1290 -1.2163 -170.6440 0.0000 0.0000 0.0000 -27.3707 -12.3782 -20.5453 4.3221 12.5772 37.8056 -1.1577 18.7418 -9.2834 0.3571 -3.8392 -10.6248 0.0000 0.0000 0.0000 13.4324 -0.7395 -14.7332 -18.1496 -19.9177 84.5827 1.0897 -20.2904 2.2936 -1.2496 7.0874 -19.9745 -8.2240 1.5962 0.6968 -3.3576 1.8729 1.0988 1.1284 0.7799 0.5822 -3.8127 -2.9071 -37.8467 6.8941 -7.3145 37.7921 2.0578 -2.6495 23.4635 -0.0000 0.0000 0.0000 -70.6305 12.5262 62.2593 121.4394 -55.9140 -86.8538 -0.0000 -0.0000 17.9341 13.9387 4.7327 1.1731 -7.1250 0.0000 -0.0000 -10.5021 34.7016 2.6930 -0.0000 0.0000 0.0000 84.9517 -24.4831 43.3414 -98.2102 59.7438 -67.1042 0.0000 0.0000 6.1060 -14.4060 -3.0495 0.7829 7.1250 -0.0000 -0.0000 9.8943 -33.0123 2.9440
0.9370 15.5249 0.2170 173.4200 -0.6574 -170.8040 0.0000 0.0000 0.0000 -28.4158 -11.4477 -19.1711 4.3791 12.6485 38.0664 -1.2224 19.2628 -9.8393 0.4468 -4.2887 -11.8902 0.0000 0.0000 0.0000 12.1346 0.2827 -17.4957 -19.1065 -19.9808 87.3867 1.1746 -20.3186 0.7894 -1.2007 6.9524 -19.5744 -9.1951 1.4076 1.1132 -3.4845 1.5342 1.2303 1.5264 0.5862 0.4886 -3.5591 -2.6226 -38.0798 6.9451 -6.9851 37.6117 2.1391 -2.4689 23.3381 -0.0000 -0.0000 0.0000 -71.4842 11.3301 61.9971 121.1826 -55.9865 -86.6411 -0.0000 -0.0000 18.2175 13.7186 4.9321 1.2024 -7.1250 0.0000 -0.0000 -10.7113 34.8931 2.6975 -0.0000 -0.0000 0.0000 85.1349 -25.8442 42.1983 -97.5823 59.7816 -66.5616 0.0000 0.0000 5.9495 -14.6779 -3.0850 0.8076 7.1250 -0.0000 -0.0000 9.6802 -33.0574 2.8680
0.9404 15.4924 -0.1394 172.9570 -0.1649 -170.8090 0.0000 0.0000 0.0000 -29.1403 -10.5811 -17.8745 4.3947 12.6678 38.1374 -1.2673 19.6117 -10.1736 0.5444 -4.7272 -13.1322 0.0000 0.0000 0.0000 11.1898 1.4307 -20.3944 -19.8781 -19.9996 89.6437 1.2387 -20.3329 -0.5607 -1.1484 6.8045 -19.1376 -9.8628 1.1433 1.3344 -3.5495 1.1243 1.2956 1.8277 0.3643 0.4584 -3.2066 -2.2549 -38.2804 6.8812 -6.5445 37.4662 2.1727 -2.2520 23.2018 0.0000 -0.0000 0.0000 -72.2649 10.3828 61.6467 121.2337 -55.9721 -86.6834 -0.0000 -0.0000 18.5042 13.5090 4.9734 1.1932 -7.1250 0.0000 -0.0000 -10.8887 34.9249 2.7350 0.0000 -0.0000 0.0000 85.1441 -27.2142 41.3185 -97.2846 59.7985 -66.3044 0.0000 0.0000 5.6553 -14.7998 -3.0702 0.8107 7.1250 -0.0000 -0.0000 9.5804 -33.0464 2.8403
0.9408 15.4773 -0.4994 172.7740 0.2121 -170.6830 0.0000 0.0000 0.0000 -29.5318 -9.8552 -16.5904 4.3724 12.6401 38.0357 -1.2944 19.8106 -10.2908 0.6425 -5.1278 -14.2735 0.0000 0.0000 0.0000 10.6196 2.6354 -23.3434 -20.4377 -19.9954 91.2798 1.2838 -20.3286 -1.7337 -1.1079 6.6876 -18.7930 -10.1555 0.7820 1.3878 -3.5363 0.6243 1.3140 2.0082 0.1070 0.4961 -2.6235 -1.7631 -38.3541 6.6020 -5.9635 37.7397 2.0888 -1.9667 22.5562 -0.0000 -0.0000 0.0000 -72.9798 9.6260 61.2279 121.5237 -55.8900 -86.9236 -0.0000 -0.0000 18.7195 13.4028 4.8777 1.1607 -7.1250 0.0000 -0.0000 -10.9608 34.8235 2.7812 -0.0000 -0.0000 0.0000 84.9680 -28.5666 40.7063 -97.3354 59.7957 -66.3483 0.0000 0.0000 5.2750 -14.7732 -2.9872 0.7873 7.1250 -0.0000 -0.0000 9.5915 -32.9609 2.8638
0.9377 15.4797 -0.8647 172.8220 0.4420 -170.4800 0.0000 0.0000 0.0000 -29.6620 -9.2853 -15.2393 4.3111 12.5633 37.7550 -1.3045 19.8636 -10.1515 0.7369 -5.4842 -15.2948 0.0000 0.0000 0.0000 10.3507 3.8097 -26.2284 -20.7723 -19.9857 92.2587 1.3134 -20.3006 -2.7560 -1.0848 6.6195 -18.5930 -10.1028 0.3300 1.3479 -3.4569 0.0339 1.3003 2.0681 -0.1864 0.5694 -2.0726 -1.2413 -38.4988 6.2313 -5.2710 37.6370 1.9964 -1.6768 22.4086 -0.0000 -0.0000 0.0000 -73.6106 8.9999 60.7956 122.0117 -55.7496 -87.3273 -0.0000 -0.0000 18.8340 13.3929 4.7459 1.1286 -7.1250 0.0000 -0.0000 -10.9490 34.6901 2.8142 -0.0000 -0.0000 0.0000 84.6465 -29.8966 40.3238 -97.7015 59.7747 -66.6646 0.0000 0.0000 4.7959 -14.6916 -2.8145 0.7376 7.1250 -0.0000 -0.0000 9.6359 -32.7824 2.9195
0.9323 15.4977 -1.2348 173.0160 0.5268 -170.2560 0.0000 0.0000 0.0000 -29.6324 -8.8418 -13.7623 4.2066 12.4303 37.2718 -1.2971 19.7662 -9.6787 0.8220 -5.7847 -16.1610 0.0000 0.0000 0.0000 10.2708 4.9002 -28.9740 -20.8894 -19.9810 92.6012 1.3283 -20.2319 -3.6543 -1.0788 6.6018 -18.5410 -9.8103 -0.1939 1.2899 -3.3206 -0.6380 1.2637 2.0530 -0.5127 0.6372 -0.4309 -1.9711 -38.6149 4.9552 -3.7966 37.7775 1.8517 -0.1283 22.3055 0.0000 0.0000 0.0000 -74.1545 8.4650 60.4016 122.6338 -55.5662 -87.8410 -0.0000 -0.0000 18.8519 13.4660 4.6820 1.1197 -7.1250 0.0000 -0.0000 -10.8798 34.6290 2.8123 0.0000 0.0000 0.0000 84.1916 -31.2207 40.1130 -98.3361 59.7358 -67.2128 0.0000 0.0000 4.3566 -14.5490 -2.5713 0.6671 7.1250 -0.0000 -0.0000 9.7207 -32.5303 3.0058
0.9268 15.5294 -1.6096 173.2310 0.4924 -170.0480 0.0000 0.0000 0.0000 -29.5782 -8.4732 -12.1366 4.0560 12.2346 36.5669 -1.2653 19.4821 -8.8632 0.8898 -6.0126 -16.8210 0.0000 0.0000 0.0000 10.2265 5.8679 -31.5379 -20.8032 -19.9845 92.3490 1.3310 -20.1263 -4.4310 -1.1095 6.6921 -18.8065 -9.4487 -0.7585 1.2578 -3.1514 -1.3643 1.2109 2.0312 -0.8622 0.6754 0.1221 -1.3525 -38.6467 4.4003 -2.9752 37.7295 1.6826 0.1399 22.1944 0.0000 0.0000 0.0000 -74.6039 7.9834 60.0950 123.3291 -55.3555 -88.4138 -0.0000 -0.0000 18.7859 13.5971 4.7326 1.1432 -7.1250 0.0000 -0.0000 -10.7805 34.6860 2.7707 0.0000 0.0000 0.0000 83.6367 -32.5333 40.0024 -99.1668 59.6801 -67.9301 0.0000 0.0000 3.9331 -14.3976 -2.2664 0.5816 7.1250 -0.0000 -0.0000 9.8051 -32.2158 3.1080
0.9239 15.5737 -1.9892 173.3620 0.3796 -169.8550 0.0000 0.0000 0.0000 -29.5985 -8.1425 -10.3909 3.8605 11.9724 35.6344 -1.2035 18.9842 -7.6941 0.9370 -6.1658 -17.2661 0.0000 0.0000 0.0000 10.0998 6.7091 -33.9259 -20.5326 -19.9932 91.5574 1.3246 -19.9935 -5.1133 -1.1569 6.8289 -19.2094 -9.1747 -1.3417 1.2474 -2.9692 -2.1219 1.1338 2.0689 -1.2268 0.6788 0.6256 -0.7656 -38.5990 3.8035 -2.1355 37.7319 1.5087 0.4046 22.1144 0.0000 0.0000 0.0000 -74.9598 7.5709 59.8956 124.0598 -55.1273 -89.0141 -0.0000 -0.0000 18.7014 13.7286 4.9041 1.1964 -7.1250 0.0000 -0.0000 -10.6989 34.8653 2.7017 0.0000 0.0000 0.0000 83.0146 -33.8451 39.9314 -100.1101 59.6102 -68.7441 0.0000 0.0000 3.5665 -14.2568 -1.9459 0.4943 7.1250 -0.0000 -0.0000 9.8793 -31.8861 3.2117
0.9252 15.6304 -2.3744 173.4240 0.2197 -169.6550 0.0000 0.0000 0.0000 -29.6621 -7.8073 -8.5891 3.6249 11.6438 34.4832 -1.1054 18.2372 -6.1850 0.9619 -6.2448 -17.4962 0.0000 0.0000 0.0000 9.9187 7.4644 -36.1392 -20.0864 -19.9998 90.2526 1.3185 -19.8931 -5.6879 -1.2222 7.0120 -19.7509 -9.0051 -1.9275 1.2248 -2.7700 -2.8849 1.0305 2.1791 -1.5943 0.6663 1.0634 -0.2244 -38.5086 3.2027 -1.3037 37.7934 1.3462 0.6613 22.0835 -0.0000 0.0000 0.0000 -75.2257 7.2315 59.7942 124.7943 -54.8908 -89.6158 -0.0000 -0.0000 18.6239 13.8467 5.1408 1.2652 -7.1250 0.0000 -0.0000 -10.6382 35.1101 2.6215 -0.0000 0.0000 0.0000 82.3553 -35.1474 39.8497 -101.1234 59.5273 -69.6178 0.0000 0.0000 3.2553 -14.1072 -1.6122 0.4051 7.1250 -0.0000 -0.0000 9.9592 -31.5435 3.3216
0.9308 15.6986 -2.7659 173.4390 0.0384 -169.4220 0.0000 0.0000 0.0000 -29.7301 -7.4382 -6.7901 3.3576 11.2526 33.1365 -0.9709 17.2400 -4.3628 0.9716 -6.2754 -17.5857 0.0000 0.0000 0.0000 9.7102 8.1705 -38.1734 -19.4744 -19.9934 88.4629 1.3177 -19.8509 -6.2103 -1.2777 7.1636 -20.2009 -8.9290 -2.5071 1.1479 -2.5504 -3.6356 0.9046 2.3569 -1.9565 0.6679 1.4183 0.2602 -38.3948 2.6343 -0.5015 37.9105 1.2108 0.9052 22.1038 -0.0000 0.0000 0.0000 -75.4033 6.9766 59.7735 125.5066 -54.6545 -90.1976 -0.0000 -0.0000 18.5790 13.9437 5.3822 1.3341 -7.1250 0.0000 -0.0000 -10.5956 35.3590 2.5455 -0.0000 0.0000 0.0000 81.6714 -36.4132 39.7414 -102.1334 59.4363 -70.4880 0.0000 0.0000 2.9973 -13.9497 -1.2916 0.3208 7.1250 -0.0000 -0.0000 10.0470 -31.2146 3.4323
0.9406 15.7782 -3.1648 173.4210 -0.1402 -169.1450 0.0000 0.0000 0.0000 -29.7822 -7.0160 -5.0341 3.0673 10.8032 31.6192 -0.8041 16.0263 -2.2290 0.9745 -6.2844 -17.6118 0.0000 0.0000 0.0000 9.4854 8.8425 -40.0146 -18.7026 -19.9596 86.2041 1.3277 -19.8993 -6.6986 -1.3150 7.2633 -20.4977 -8.9196 -3.0735 0.9978 -2.3215 -4.3631 0.7539 2.5734 -2.3083 0.6918 1.7754 0.7353 -38.2568 2.0594 0.2971 38.0252 1.0707 1.1491 22.1309 -0.0000 -0.0000 0.0000 -75.4728 6.8342 59.8341 126.1958 -54.4191 -90.7590 -0.0000 -0.0000 18.5630 14.0395 5.5769 1.3921 -7.1250 0.0000 -0.0000 -10.5469 35.5607 2.4808 -0.0000 -0.0000 0.0000 80.9895 -37.6344 39.6222 -103.1059 59.3409 -71.3249 0.0000 0.0000 2.7057 -13.8646 -0.9947 0.2455 7.1250 -0.0000 -0.0000 10.0807 -30.9117 3.5186
0.9544 15.8669 -3.5695 173.4030 -0.2856 -168.8180 0.0000 0.0000 0.0000 -29.7787 -6.5303 -3.3579 2.7625 10.3002 29.9545 -0.6086 14.6548 0.2529 0.9716 -6.2755 -17.5858 0.0000 0.0000 0.0000 9.2807 9.5225 -41.6672 -17.7834 -19.8818 83.5068 1.3539 -20.0735 -7.1263 -1.3281 7.2981 -20.6015 -8.9514 -3.6157 0.7714 -2.0774 -5.0512 0.5891 2.8187 -2.6419 0.7498 2.1420 1.2048 -38.1236 1.4844 1.0870 38.1356 0.9269 1.3928 22.1714 0.0000 0.0000 0.0000 -75.4462 6.7906 59.9490 126.8523 -54.1887 -91.2922 -0.0000 -0.0000 18.5717 14.1518 5.6652 1.4258 -7.1250 0.0000 -0.0000 -10.4682 35.6559 2.4371 0.0000 0.0000 0.0000 80.3152 -38.7854 39.4869 -104.0305 59.2430 -72.1199 0.0000 0.0000 2.3632 -13.8149 -0.6799 0.1672 7.1250 -0.0000 -0.0000 10.0851 -30.5917 3.5986
